<svg width="260" height="40" viewBox="0 0 260 40" fill="none" xmlns="http://www.w3.org/2000/svg">
<rect width="260" height="40" rx="3" fill="white" fill-opacity="0.05"/>
<path d="M92.5 14.1667V25.8334" stroke="white" stroke-width="2" stroke-linecap="round" stroke-linejoin="round"/>
<path d="M86.6667 20H98.3334" stroke="white" stroke-width="2" stroke-linecap="round" stroke-linejoin="round"/>
<path d="M111.828 26V15.536H113.732L116.996 21.424L118.068 23.648H118.132C118.089 23.104 118.036 22.5227 117.972 21.904C117.919 21.2747 117.892 20.6667 117.892 20.08V15.536H119.668V26H117.764L114.5 20.112L113.428 17.888H113.364C113.407 18.4427 113.455 19.024 113.508 19.632C113.572 20.24 113.604 20.8373 113.604 21.424V26H111.828ZM125.528 26.192C124.984 26.192 124.477 26.1013 124.008 25.92C123.539 25.728 123.128 25.456 122.776 25.104C122.424 24.752 122.147 24.3253 121.944 23.824C121.752 23.312 121.656 22.7307 121.656 22.08C121.656 21.44 121.757 20.864 121.96 20.352C122.163 19.84 122.429 19.408 122.76 19.056C123.101 18.704 123.491 18.432 123.928 18.24C124.365 18.048 124.813 17.952 125.272 17.952C125.805 17.952 126.275 18.0427 126.68 18.224C127.085 18.4053 127.421 18.6613 127.688 18.992C127.965 19.3227 128.173 19.7173 128.312 20.176C128.451 20.6347 128.52 21.136 128.52 21.68C128.52 21.8613 128.509 22.032 128.488 22.192C128.477 22.352 128.461 22.48 128.44 22.576H123.448C123.533 23.28 123.779 23.824 124.184 24.208C124.6 24.5813 125.128 24.768 125.768 24.768C126.109 24.768 126.424 24.72 126.712 24.624C127.011 24.5173 127.304 24.3733 127.592 24.192L128.216 25.344C127.843 25.5893 127.427 25.792 126.968 25.952C126.509 26.112 126.029 26.192 125.528 26.192ZM123.432 21.328H126.92C126.92 20.72 126.787 20.2453 126.52 19.904C126.264 19.552 125.864 19.376 125.32 19.376C124.851 19.376 124.44 19.5413 124.088 19.872C123.736 20.2027 123.517 20.688 123.432 21.328ZM131.573 26L129.493 18.144H131.349L132.293 22.224C132.379 22.5973 132.448 22.9707 132.501 23.344C132.565 23.7173 132.635 24.096 132.709 24.48H132.773C132.848 24.096 132.923 23.7173 132.997 23.344C133.083 22.9707 133.173 22.5973 133.269 22.224L134.293 18.144H135.973L137.013 22.224C137.109 22.5973 137.2 22.9707 137.285 23.344C137.371 23.7173 137.456 24.096 137.541 24.48H137.605C137.68 24.096 137.749 23.7173 137.813 23.344C137.877 22.9707 137.947 22.5973 138.021 22.224L138.965 18.144H140.693L138.693 26H136.501L135.589 22.336C135.504 21.9627 135.424 21.5947 135.349 21.232C135.275 20.8587 135.195 20.464 135.109 20.048H135.045C134.971 20.464 134.896 20.8587 134.821 21.232C134.747 21.6053 134.667 21.9787 134.581 22.352L133.685 26H131.573ZM145.609 26V15.536H147.513L150.777 21.424L151.849 23.648H151.913C151.871 23.104 151.817 22.5227 151.753 21.904C151.7 21.2747 151.673 20.6667 151.673 20.08V15.536H153.449V26H151.545L148.281 20.112L147.209 17.888H147.145C147.188 18.4427 147.236 19.024 147.289 19.632C147.353 20.24 147.385 20.8373 147.385 21.424V26H145.609ZM159.165 26.192C158.675 26.192 158.205 26.1013 157.757 25.92C157.309 25.7387 156.909 25.472 156.557 25.12C156.216 24.768 155.944 24.336 155.741 23.824C155.539 23.312 155.437 22.7307 155.437 22.08C155.437 21.4293 155.539 20.848 155.741 20.336C155.944 19.824 156.216 19.392 156.557 19.04C156.909 18.688 157.309 18.4213 157.757 18.24C158.205 18.048 158.675 17.952 159.165 17.952C159.656 17.952 160.125 18.048 160.573 18.24C161.032 18.4213 161.432 18.688 161.773 19.04C162.115 19.392 162.387 19.824 162.589 20.336C162.803 20.848 162.909 21.4293 162.909 22.08C162.909 22.7307 162.803 23.312 162.589 23.824C162.387 24.336 162.115 24.768 161.773 25.12C161.432 25.472 161.032 25.7387 160.573 25.92C160.125 26.1013 159.656 26.192 159.165 26.192ZM159.165 24.688C159.741 24.688 160.195 24.4533 160.525 23.984C160.856 23.504 161.021 22.8693 161.021 22.08C161.021 21.28 160.856 20.6453 160.525 20.176C160.195 19.696 159.741 19.456 159.165 19.456C158.589 19.456 158.136 19.696 157.805 20.176C157.485 20.6453 157.325 21.28 157.325 22.08C157.325 22.8693 157.485 23.504 157.805 23.984C158.136 24.4533 158.589 24.688 159.165 24.688ZM167.139 26.192C166.68 26.192 166.291 26.1227 165.971 25.984C165.662 25.8453 165.406 25.6533 165.203 25.408C165.011 25.152 164.867 24.8533 164.771 24.512C164.686 24.16 164.643 23.7707 164.643 23.344V19.6H163.523V18.224L164.739 18.144L164.963 16H166.499V18.144H168.499V19.6H166.499V23.344C166.499 24.2613 166.867 24.72 167.603 24.72C167.742 24.72 167.88 24.704 168.019 24.672C168.168 24.64 168.302 24.5973 168.419 24.544L168.739 25.904C168.526 25.9787 168.28 26.0427 168.003 26.096C167.736 26.16 167.448 26.192 167.139 26.192ZM173.262 26.192C172.718 26.192 172.212 26.1013 171.742 25.92C171.273 25.728 170.862 25.456 170.51 25.104C170.158 24.752 169.881 24.3253 169.678 23.824C169.486 23.312 169.39 22.7307 169.39 22.08C169.39 21.44 169.492 20.864 169.694 20.352C169.897 19.84 170.164 19.408 170.494 19.056C170.836 18.704 171.225 18.432 171.662 18.24C172.1 18.048 172.548 17.952 173.006 17.952C173.54 17.952 174.009 18.0427 174.414 18.224C174.82 18.4053 175.156 18.6613 175.422 18.992C175.7 19.3227 175.908 19.7173 176.046 20.176C176.185 20.6347 176.254 21.136 176.254 21.68C176.254 21.8613 176.244 22.032 176.222 22.192C176.212 22.352 176.196 22.48 176.174 22.576H171.182C171.268 23.28 171.513 23.824 171.918 24.208C172.334 24.5813 172.862 24.768 173.502 24.768C173.844 24.768 174.158 24.72 174.446 24.624C174.745 24.5173 175.038 24.3733 175.326 24.192L175.95 25.344C175.577 25.5893 175.161 25.792 174.702 25.952C174.244 26.112 173.764 26.192 173.262 26.192ZM171.166 21.328H174.654C174.654 20.72 174.521 20.2453 174.254 19.904C173.998 19.552 173.598 19.376 173.054 19.376C172.585 19.376 172.174 19.5413 171.822 19.872C171.47 20.2027 171.252 20.688 171.166 21.328Z" fill="white"/>
</svg>
