<svg width="20" height="17" viewBox="0 0 20 17" fill="none" xmlns="http://www.w3.org/2000/svg">
<path d="M5.00008 10.6667L6.20841 8.25C6.34755 7.97388 6.56076 7.74191 6.82419 7.58002C7.08762 7.41814 7.39089 7.33272 7.70008 7.33333H16.6667C16.9214 7.33289 17.1727 7.39078 17.4014 7.50257C17.6302 7.61436 17.8303 7.77707 17.9864 7.97822C18.1425 8.17937 18.2504 8.41361 18.3019 8.66296C18.3534 8.91231 18.3471 9.17014 18.2834 9.41667L16.9917 14.4167C16.8993 14.7749 16.6902 15.0922 16.3975 15.3185C16.1048 15.5448 15.7451 15.6673 15.3751 15.6667H3.33341C2.89139 15.6667 2.46746 15.4911 2.1549 15.1785C1.84234 14.866 1.66675 14.442 1.66675 14V3.16667C1.66675 2.25 2.41675 1.5 3.33341 1.5H6.60841C6.88293 1.50142 7.15284 1.57063 7.39417 1.70147C7.6355 1.83231 7.84077 2.02073 7.99175 2.25L8.67508 3.25C8.82606 3.47927 9.03133 3.66769 9.27266 3.79853C9.51399 3.92937 9.7839 3.99858 10.0584 4H15.0001C15.4421 4 15.866 4.17559 16.1786 4.48816C16.4912 4.80072 16.6667 5.22464 16.6667 5.66667V7.33333" stroke="white" stroke-width="2" stroke-linecap="round" stroke-linejoin="round"/>
</svg>
