<svg width="88" height="18" viewBox="0 0 88 18" fill="none" xmlns="http://www.w3.org/2000/svg">
<path d="M21.162 14V4.844H24.256C24.732 4.844 25.1753 4.89067 25.586 4.984C25.9967 5.07733 26.3513 5.23133 26.65 5.446C26.9487 5.65133 27.182 5.92667 27.35 6.272C27.5273 6.61733 27.616 7.04667 27.616 7.56C27.616 8.26 27.448 8.82467 27.112 9.254C26.7853 9.68333 26.3467 9.99133 25.796 10.178L27.98 14H26.16L24.186 10.416H22.786V14H21.162ZM22.786 9.128H24.088C24.7133 9.128 25.1893 8.99733 25.516 8.736C25.852 8.47467 26.02 8.08267 26.02 7.56C26.02 7.028 25.852 6.65933 25.516 6.454C25.1893 6.24867 24.7133 6.146 24.088 6.146H22.786V9.128ZM32.1104 14.168C31.6344 14.168 31.1911 14.0887 30.7804 13.93C30.3698 13.762 30.0104 13.524 29.7024 13.216C29.3944 12.908 29.1518 12.5347 28.9744 12.096C28.8064 11.648 28.7224 11.1393 28.7224 10.57C28.7224 10.01 28.8111 9.506 28.9884 9.058C29.1658 8.61 29.3991 8.232 29.6884 7.924C29.9871 7.616 30.3278 7.378 30.7104 7.21C31.0931 7.042 31.4851 6.958 31.8864 6.958C32.3531 6.958 32.7638 7.03733 33.1184 7.196C33.4731 7.35467 33.7671 7.57867 34.0004 7.868C34.2431 8.15733 34.4251 8.50267 34.5464 8.904C34.6678 9.30533 34.7284 9.744 34.7284 10.22C34.7284 10.3787 34.7191 10.528 34.7004 10.668C34.6911 10.808 34.6771 10.92 34.6584 11.004H30.2904C30.3651 11.62 30.5798 12.096 30.9344 12.432C31.2984 12.7587 31.7604 12.922 32.3204 12.922C32.6191 12.922 32.8944 12.88 33.1464 12.796C33.4078 12.7027 33.6644 12.5767 33.9164 12.418L34.4624 13.426C34.1358 13.6407 33.7718 13.818 33.3704 13.958C32.9691 14.098 32.5491 14.168 32.1104 14.168ZM30.2764 9.912H33.3284C33.3284 9.38 33.2118 8.96467 32.9784 8.666C32.7544 8.358 32.4044 8.204 31.9284 8.204C31.5178 8.204 31.1584 8.34867 30.8504 8.638C30.5424 8.92733 30.3511 9.352 30.2764 9.912ZM39.1361 14.168C38.6695 14.168 38.2308 14.0887 37.8201 13.93C37.4188 13.7713 37.0688 13.538 36.7701 13.23C36.4715 12.922 36.2381 12.544 36.0701 12.096C35.9021 11.648 35.8181 11.1393 35.8181 10.57C35.8181 10.0007 35.9115 9.492 36.0981 9.044C36.2848 8.596 36.5368 8.218 36.8541 7.91C37.1715 7.602 37.5355 7.36867 37.9461 7.21C38.3661 7.042 38.8048 6.958 39.2621 6.958C39.7101 6.958 40.0928 7.03267 40.4101 7.182C40.7368 7.33133 41.0261 7.51333 41.2781 7.728L40.4941 8.778C40.3075 8.61933 40.1208 8.498 39.9341 8.414C39.7568 8.32067 39.5608 8.274 39.3461 8.274C38.7861 8.274 38.3335 8.484 37.9881 8.904C37.6428 9.31467 37.4701 9.87 37.4701 10.57C37.4701 11.2607 37.6381 11.816 37.9741 12.236C38.3195 12.6467 38.7628 12.852 39.3041 12.852C39.5748 12.852 39.8268 12.796 40.0601 12.684C40.3028 12.5627 40.5221 12.4227 40.7181 12.264L41.3761 13.328C41.0495 13.608 40.6901 13.818 40.2981 13.958C39.9155 14.098 39.5281 14.168 39.1361 14.168ZM45.3311 14.168C44.8551 14.168 44.4118 14.0887 44.0011 13.93C43.5905 13.762 43.2311 13.524 42.9231 13.216C42.6151 12.908 42.3725 12.5347 42.1951 12.096C42.0271 11.648 41.9431 11.1393 41.9431 10.57C41.9431 10.01 42.0318 9.506 42.2091 9.058C42.3865 8.61 42.6198 8.232 42.9091 7.924C43.2078 7.616 43.5485 7.378 43.9311 7.21C44.3138 7.042 44.7058 6.958 45.1071 6.958C45.5738 6.958 45.9845 7.03733 46.3391 7.196C46.6938 7.35467 46.9878 7.57867 47.2211 7.868C47.4638 8.15733 47.6458 8.50267 47.7671 8.904C47.8885 9.30533 47.9491 9.744 47.9491 10.22C47.9491 10.3787 47.9398 10.528 47.9211 10.668C47.9118 10.808 47.8978 10.92 47.8791 11.004H43.5111C43.5858 11.62 43.8005 12.096 44.1551 12.432C44.5191 12.7587 44.9811 12.922 45.5411 12.922C45.8398 12.922 46.1151 12.88 46.3671 12.796C46.6285 12.7027 46.8851 12.5767 47.1371 12.418L47.6831 13.426C47.3565 13.6407 46.9925 13.818 46.5911 13.958C46.1898 14.098 45.7698 14.168 45.3311 14.168ZM43.4971 9.912H46.5491C46.5491 9.38 46.4325 8.96467 46.1991 8.666C45.9751 8.358 45.6251 8.204 45.1491 8.204C44.7385 8.204 44.3791 8.34867 44.0711 8.638C43.7631 8.92733 43.5718 9.352 43.4971 9.912ZM49.4868 14V7.126H50.8168L50.9288 8.05H50.9848C51.2928 7.75133 51.6242 7.49467 51.9788 7.28C52.3428 7.06533 52.7628 6.958 53.2388 6.958C53.9762 6.958 54.5128 7.196 54.8488 7.672C55.1848 8.13867 55.3528 8.81067 55.3528 9.688V14H53.7428V9.898C53.7428 9.32867 53.6588 8.92733 53.4908 8.694C53.3228 8.46067 53.0475 8.344 52.6648 8.344C52.3662 8.344 52.1002 8.41867 51.8668 8.568C51.6428 8.708 51.3862 8.918 51.0968 9.198V14H49.4868ZM59.7428 14.168C59.3415 14.168 59.0008 14.1073 58.7208 13.986C58.4502 13.8647 58.2262 13.6967 58.0488 13.482C57.8808 13.258 57.7548 12.9967 57.6708 12.698C57.5962 12.39 57.5588 12.0493 57.5588 11.676V8.4H56.5788V7.196L57.6428 7.126L57.8388 5.25H59.1828V7.126H60.9328V8.4H59.1828V11.676C59.1828 12.4787 59.5048 12.88 60.1488 12.88C60.2702 12.88 60.3915 12.866 60.5128 12.838C60.6435 12.81 60.7602 12.7727 60.8628 12.726L61.1428 13.916C60.9562 13.9813 60.7415 14.0373 60.4988 14.084C60.2655 14.14 60.0135 14.168 59.7428 14.168ZM64.1607 14.168C63.6847 14.168 63.2134 14.0793 62.7467 13.902C62.2894 13.7153 61.8927 13.4867 61.5567 13.216L62.3127 12.18C62.6207 12.4227 62.924 12.614 63.2227 12.754C63.5307 12.8847 63.862 12.95 64.2167 12.95C64.59 12.95 64.8654 12.8753 65.0427 12.726C65.22 12.5673 65.3087 12.3667 65.3087 12.124C65.3087 11.984 65.2667 11.8627 65.1827 11.76C65.0987 11.648 64.9867 11.55 64.8467 11.466C64.7067 11.382 64.548 11.3073 64.3707 11.242C64.1934 11.1673 64.016 11.0927 63.8387 11.018C63.6147 10.934 63.386 10.836 63.1527 10.724C62.9194 10.612 62.7094 10.4767 62.5227 10.318C62.3454 10.1593 62.196 9.97733 62.0747 9.772C61.9627 9.55733 61.9067 9.30533 61.9067 9.016C61.9067 8.40933 62.1307 7.91467 62.5787 7.532C63.0267 7.14933 63.638 6.958 64.4127 6.958C64.8887 6.958 65.318 7.042 65.7007 7.21C66.0834 7.378 66.4147 7.56933 66.6947 7.784L65.9527 8.764C65.71 8.58667 65.4627 8.44667 65.2107 8.344C64.968 8.232 64.7114 8.176 64.4407 8.176C64.0954 8.176 63.8387 8.25067 63.6707 8.4C63.512 8.54 63.4327 8.71733 63.4327 8.932C63.4327 9.072 63.47 9.19333 63.5447 9.296C63.6287 9.38933 63.736 9.47333 63.8667 9.548C63.9974 9.62267 64.1467 9.69267 64.3147 9.758C64.492 9.82333 64.674 9.88867 64.8607 9.954C65.094 10.038 65.3274 10.136 65.5607 10.248C65.794 10.3507 66.004 10.4813 66.1907 10.64C66.3867 10.7987 66.5407 10.9947 66.6527 11.228C66.774 11.452 66.8347 11.7227 66.8347 12.04C66.8347 12.3387 66.774 12.6187 66.6527 12.88C66.5407 13.132 66.3727 13.356 66.1487 13.552C65.9247 13.7387 65.6447 13.888 65.3087 14C64.9727 14.112 64.59 14.168 64.1607 14.168Z" fill="white" fill-opacity="0.6"/>
</svg>
